{
    "asset" : {
        "generator" : "Khronos glTF Blender I/O v1.3.48",
        "version" : "2.0"
    },
    "scene" : 0,
    "scenes" : [
        {
            "name" : "Scene",
            "nodes" : [
                0,
                1,
                2,
                3,
                4,
                5
            ]
        }
    ],
    "nodes" : [
        {
            "name" : "Light",
            "rotation" : [
                0.16907575726509094,
                0.7558803558349609,
                -0.27217137813568115,
                0.570947527885437
            ],
            "translation" : [
                4.076245307922363,
                5.903861999511719,
                -1.0054539442062378
            ]
        },
        {
            "name" : "Camera",
            "rotation" : [
                0.483536034822464,
                0.33687159419059753,
                -0.20870360732078552,
                0.7804827094078064
            ],
            "translation" : [
                7.358891487121582,
                4.958309173583984,
                6.925790786743164
            ]
        },
        {
            "mesh" : 0,
            "name" : "texturedMesh",
            "rotation" : [
                0.7071068286895752,
                0,
                0,
                0.7071067094802856
            ],
            "scale" : [
                113.7904281616211,
                -2.1060547828674316,
                31.139829635620117
            ]
        },
        {
            "mesh" : 1,
            "name" : "texturedMesh.001",
            "rotation" : [
                0.7071068286895752,
                0,
                0,
                0.7071067094802856
            ],
            "scale" : [
                113.7904281616211,
                -2.1060547828674316,
                31.139829635620117
            ],
            "translation" : [
                0.2609314024448395,
                -0.6001959443092346,
                0.5799853205680847
            ]
        },
        {
            "mesh" : 2,
            "name" : "texturedMesh.002",
            "rotation" : [
                0.7071068286895752,
                0,
                0,
                0.7071067094802856
            ],
            "scale" : [
                113.7904281616211,
                -2.1060547828674316,
                31.139829635620117
            ],
            "translation" : [
                0.42736363410949707,
                -0.9712488651275635,
                1.3228850364685059
            ]
        },
        {
            "mesh" : 3,
            "name" : "texturedMesh.003",
            "rotation" : [
                0.7059365510940552,
                0.040665607899427414,
                -0.04066561535000801,
                0.7059364318847656
            ],
            "scale" : [
                340.7127380371094,
                -2.814462184906006,
                41.61424255371094
            ],
            "translation" : [
                0.42736363410949707,
                -0.9712488651275635,
                1.3228850364685059
            ]
        }
    ],
    "materials" : [
        {
            "doubleSided" : true,
            "emissiveFactor" : [
                0,
                0,
                0
            ],
            "name" : "TextureAtlas_1001",
            "pbrMetallicRoughness" : {
                "baseColorTexture" : {
                    "index" : 0,
                    "texCoord" : 0
                },
                "metallicFactor" : 0,
                "roughnessFactor" : 1
            }
        }
    ],
    "meshes" : [
        {
            "name" : "texturedMesh",
            "primitives" : [
                {
                    "attributes" : {
                        "POSITION" : 0,
                        "NORMAL" : 1,
                        "TEXCOORD_0" : 2
                    },
                    "indices" : 3,
                    "material" : 0
                }
            ]
        },
        {
            "name" : "texturedMesh.001",
            "primitives" : [
                {
                    "attributes" : {
                        "POSITION" : 4,
                        "NORMAL" : 5,
                        "TEXCOORD_0" : 6
                    },
                    "indices" : 3,
                    "material" : 0
                }
            ]
        },
        {
            "name" : "texturedMesh.002",
            "primitives" : [
                {
                    "attributes" : {
                        "POSITION" : 7,
                        "NORMAL" : 8,
                        "TEXCOORD_0" : 9
                    },
                    "indices" : 3,
                    "material" : 0
                }
            ]
        },
        {
            "name" : "texturedMesh.003",
            "primitives" : [
                {
                    "attributes" : {
                        "POSITION" : 10,
                        "NORMAL" : 11,
                        "TEXCOORD_0" : 12
                    },
                    "indices" : 3,
                    "material" : 0
                }
            ]
        }
    ],
    "textures" : [
        {
            "source" : 0
        }
    ],
    "images" : [
        {
            "bufferView" : 4,
            "mimeType" : "image/png",
            "name" : "texture_1001"
        }
    ],
    "accessors" : [
        {
            "bufferView" : 0,
            "componentType" : 5126,
            "count" : 246,
            "max" : [
                0.41339412331581116,
                2.6458065509796143,
                -0.1631281077861786
            ],
            "min" : [
                -0.0628545805811882,
                2.243931770324707,
                -0.7854771614074707
            ],
            "type" : "VEC3"
        },
        {
            "bufferView" : 1,
            "componentType" : 5126,
            "count" : 246,
            "type" : "VEC3"
        },
        {
            "bufferView" : 2,
            "componentType" : 5126,
            "count" : 246,
            "type" : "VEC2"
        },
        {
            "bufferView" : 3,
            "componentType" : 5123,
            "count" : 246,
            "type" : "SCALAR"
        },
        {
            "bufferView" : 5,
            "componentType" : 5126,
            "count" : 246,
            "max" : [
                0.41339412331581116,
                2.6458065509796143,
                -0.1631281077861786
            ],
            "min" : [
                -0.0628545805811882,
                2.243931770324707,
                -0.7854771614074707
            ],
            "type" : "VEC3"
        },
        {
            "bufferView" : 6,
            "componentType" : 5126,
            "count" : 246,
            "type" : "VEC3"
        },
        {
            "bufferView" : 7,
            "componentType" : 5126,
            "count" : 246,
            "type" : "VEC2"
        },
        {
            "bufferView" : 8,
            "componentType" : 5126,
            "count" : 246,
            "max" : [
                0.41339412331581116,
                2.6458065509796143,
                -0.1631281077861786
            ],
            "min" : [
                -0.0628545805811882,
                2.243931770324707,
                -0.7854771614074707
            ],
            "type" : "VEC3"
        },
        {
            "bufferView" : 9,
            "componentType" : 5126,
            "count" : 246,
            "type" : "VEC3"
        },
        {
            "bufferView" : 10,
            "componentType" : 5126,
            "count" : 246,
            "type" : "VEC2"
        },
        {
            "bufferView" : 11,
            "componentType" : 5126,
            "count" : 246,
            "max" : [
                0.41339412331581116,
                2.6458065509796143,
                -0.1631281077861786
            ],
            "min" : [
                -0.0628545805811882,
                2.243931770324707,
                -0.7854771614074707
            ],
            "type" : "VEC3"
        },
        {
            "bufferView" : 12,
            "componentType" : 5126,
            "count" : 246,
            "type" : "VEC3"
        },
        {
            "bufferView" : 13,
            "componentType" : 5126,
            "count" : 246,
            "type" : "VEC2"
        }
    ],
    "bufferViews" : [
        {
            "buffer" : 0,
            "byteLength" : 2952,
            "byteOffset" : 0
        },
        {
            "buffer" : 0,
            "byteLength" : 2952,
            "byteOffset" : 2952
        },
        {
            "buffer" : 0,
            "byteLength" : 1968,
            "byteOffset" : 5904
        },
        {
            "buffer" : 0,
            "byteLength" : 492,
            "byteOffset" : 7872
        },
        {
            "buffer" : 0,
            "byteLength" : 890812,
            "byteOffset" : 8364
        },
        {
            "buffer" : 0,
            "byteLength" : 2952,
            "byteOffset" : 899176
        },
        {
            "buffer" : 0,
            "byteLength" : 2952,
            "byteOffset" : 902128
        },
        {
            "buffer" : 0,
            "byteLength" : 1968,
            "byteOffset" : 905080
        },
        {
            "buffer" : 0,
            "byteLength" : 2952,
            "byteOffset" : 907048
        },
        {
            "buffer" : 0,
            "byteLength" : 2952,
            "byteOffset" : 910000
        },
        {
            "buffer" : 0,
            "byteLength" : 1968,
            "byteOffset" : 912952
        },
        {
            "buffer" : 0,
            "byteLength" : 2952,
            "byteOffset" : 914920
        },
        {
            "buffer" : 0,
            "byteLength" : 2952,
            "byteOffset" : 917872
        },
        {
            "buffer" : 0,
            "byteLength" : 1968,
            "byteOffset" : 920824
        }
    ],
    "buffers" : [
        {
            "byteLength" : 922792,
            "uri" : "data:application/octet-stream;base64,"
        }
    ]
}
