{
    "asset" : {
        "generator" : "Khronos glTF Blender I/O v1.3.48",
        "version" : "2.0"
    },
    "scene" : 0,
    "scenes" : [
        {
            "name" : "Scene",
            "nodes" : [
                0,
                1,
                2
            ]
        }
    ],
    "nodes" : [
        {
            "name" : "Light",
            "rotation" : [
                0.16907575726509094,
                0.7558803558349609,
                -0.27217137813568115,
                0.570947527885437
            ],
            "translation" : [
                4.076245307922363,
                5.903861999511719,
                -1.0054539442062378
            ]
        },
        {
            "name" : "Camera",
            "rotation" : [
                0.483536034822464,
                0.33687159419059753,
                -0.20870360732078552,
                0.7804827094078064
            ],
            "translation" : [
                7.358891487121582,
                4.958309173583984,
                6.925790786743164
            ]
        },
        {
            "mesh" : 0,
            "name" : "texturedMesh",
            "rotation" : [
                0.20989008247852325,
                0.7989808320999146,
                0.5369887948036194,
                -0.17093504965305328
            ],
            "scale" : [
                1.192065715789795,
                1.115906834602356,
                1.319704294204712
            ]
        }
    ],
    "materials" : [
        {
            "doubleSided" : true,
            "emissiveFactor" : [
                0,
                0,
                0
            ],
            "name" : "TextureAtlas_1001",
            "pbrMetallicRoughness" : {
                "baseColorTexture" : {
                    "index" : 0,
                    "texCoord" : 0
                },
                "metallicFactor" : 0,
                "roughnessFactor" : 1
            }
        }
    ],
    "meshes" : [
        {
            "name" : "texturedMesh",
            "primitives" : [
                {
                    "attributes" : {
                        "POSITION" : 0,
                        "NORMAL" : 1,
                        "TEXCOORD_0" : 2
                    },
                    "indices" : 3,
                    "material" : 0
                }
            ]
        }
    ],
    "textures" : [
        {
            "source" : 0
        }
    ],
    "images" : [
        {
            "bufferView" : 4,
            "mimeType" : "image/png",
            "name" : "texture_1001"
        }
    ],
    "accessors" : [
        {
            "bufferView" : 0,
            "componentType" : 5126,
            "count" : 4383,
            "max" : [
                0.3958815932273865,
                1.7552393674850464,
                0.7260714173316956
            ],
            "min" : [
                -0.37785810232162476,
                1.0449769496917725,
                -0.555878221988678
            ],
            "type" : "VEC3"
        },
        {
            "bufferView" : 1,
            "componentType" : 5126,
            "count" : 4383,
            "type" : "VEC3"
        },
        {
            "bufferView" : 2,
            "componentType" : 5126,
            "count" : 4383,
            "type" : "VEC2"
        },
        {
            "bufferView" : 3,
            "componentType" : 5123,
            "count" : 4383,
            "type" : "SCALAR"
        }
    ],
    "bufferViews" : [
        {
            "buffer" : 0,
            "byteLength" : 52596,
            "byteOffset" : 0
        },
        {
            "buffer" : 0,
            "byteLength" : 52596,
            "byteOffset" : 52596
        },
        {
            "buffer" : 0,
            "byteLength" : 35064,
            "byteOffset" : 105192
        },
        {
            "buffer" : 0,
            "byteLength" : 8766,
            "byteOffset" : 140256
        },
        {
            "buffer" : 0,
            "byteLength" : 1025488,
            "byteOffset" : 149024
        }
    ],
    "buffers" : [
        {
            "byteLength" : 1174512,
            "uri" : "data:application/octet-stream;base64,"
        }
    ]
}
